<?xml version="1.0" encoding="UTF-8"?>
<svg width="36px" height="36px" viewBox="0 0 36 36" version="1.1" xmlns="http://www.w3.org/2000/svg" xmlns:xlink="http://www.w3.org/1999/xlink">
    <!-- Generator: Sketch 44.1 (41455) - http://www.bohemiancoding.com/sketch -->
    <title>location-world grid</title>
    <desc>Created with Sketch.</desc>
    <defs></defs>
    <g id="Company-landing-page" stroke="none" stroke-width="1" fill="none" fill-rule="evenodd">
        <g id="Company-Landing-Page" transform="translate(-443.000000, -4877.000000)" fill-rule="nonzero" fill="#243858">
            <g id="location-world-grid" transform="translate(443.000000, 4877.000000)">
                <path d="M17.47,28 L17.47,18.37 L7.91,18.37 C7.98372517,21.7221354 8.81443712,25.0142161 10.34,28 L17.47,28 Z" id="Shape"></path>
                <path d="M0,17.37 L6.91,17.37 C6.98989862,14.0432243 7.78454193,10.7725679 9.24,7.78 L3.07,7.78 C1.15061361,10.6172977 0.0851653818,13.945522 0,17.37 Z" id="Shape"></path>
                <path d="M17.47,0.44 C15.7,0.83 13,3.16 10.89,6.78 L17.47,6.78 L17.47,0.44 Z" id="Shape"></path>
                <path d="M17.47,35.3 L17.47,29 L10.89,29 C13,32.58 15.7,34.91 17.47,35.3 Z" id="Shape"></path>
                <path d="M6.91,18.37 L0,18.37 C0.0775415169,21.8081728 1.1433226,25.1513233 3.07,28 L9.24,28 C7.77896128,24.995227 6.98417272,21.7103283 6.91,18.37 L6.91,18.37 Z" id="Shape"></path>
                <path d="M18.47,0.44 L18.47,6.78 L25.05,6.78 C23,3.16 20.25,0.83 18.47,0.44 Z" id="Shape"></path>
                <path d="M18.47,17.37 L28,17.37 C27.9295924,14.033762 27.1093305,10.7561321 25.6,7.78 L18.47,7.78 L18.47,17.37 Z" id="Shape"></path>
                <path d="M7.91,17.37 L17.48,17.37 L17.48,7.78 L10.34,7.78 C8.82026486,10.7536813 7.98971848,14.0314343 7.91,17.37 L7.91,17.37 Z" id="Shape"></path>
                <path d="M28,18.37 L18.47,18.37 L18.47,28 L25.6,28 C27.115159,25.0117565 27.9355844,21.7197995 28,18.37 Z" id="Shape"></path>
                <path d="M9.76,29 L3.81,29 C6.77570509,32.7856124 11.1329132,35.2270894 15.91,35.78 C13.2826105,34.1200987 11.1566118,31.7763147 9.76,29 L9.76,29 Z" id="Shape"></path>
                <path d="M26.19,29 C24.7779532,31.7703904 22.6380438,34.1038943 20,35.75 C24.7831991,35.2123232 29.1517975,32.7813225 32.13,29 L26.19,29 Z" id="Shape"></path>
                <path d="M9.76,6.78 C11.1566118,4.00368529 13.2826105,1.65990135 15.91,1.77635684e-15 C11.1329132,0.552910628 6.77570509,2.99438759 3.81,6.78 L9.76,6.78 Z" id="Shape"></path>
                <path d="M26.19,6.78 L32.14,6.78 C29.1648557,2.9851156 24.791468,0.542647034 20,0 C22.6421204,1.65429945 24.7824145,3.99859571 26.19,6.78 L26.19,6.78 Z" id="Shape"></path>
                <path d="M35.95,18.37 L29,18.37 C28.9380062,21.7073216 28.156912,24.99201 26.71,28 L32.89,28 C34.8131373,25.1502296 35.8754203,21.8071625 35.95,18.37 Z" id="Shape"></path>
                <path d="M25.06,29 L18.47,29 L18.47,35.3 C20.25,34.91 23,32.58 25.06,29 Z" id="Shape"></path>
                <path d="M26.71,7.78 C28.1513329,10.7757729 28.9322845,14.0462205 29,17.37 L35.91,17.37 C35.8248346,13.945522 34.7593864,10.6172977 32.84,7.78 L26.71,7.78 Z" id="Shape"></path>
            </g>
        </g>
    </g>
</svg>