<?xml version="1.0" encoding="UTF-8"?>
<svg width="37px" height="28px" viewBox="0 0 37 28" version="1.1" xmlns="http://www.w3.org/2000/svg" xmlns:xlink="http://www.w3.org/1999/xlink">
    <!-- Generator: Sketch 44.1 (41455) - http://www.bohemiancoding.com/sketch -->
    <title>Group 28</title>
    <desc>Created with Sketch.</desc>
    <defs></defs>
    <g id="Company-landing-page" stroke="none" stroke-width="1" fill="none" fill-rule="evenodd">
        <g id="Company-Landing-Page" transform="translate(-149.000000, -5044.000000)" fill-rule="nonzero" fill="#243858">
            <g id="Group-14" transform="translate(147.000000, 4882.000000)">
                <g id="Group-28" transform="translate(2.000000, 162.000000)">
                    <path d="M26.925426,10.2000016 C26.1466813,14.5417855 22.3359508,17.6792868 17.925426,17.6100016 L17.925426,17.6100016 C15.8403899,17.608866 13.8403369,18.436226 12.365426,19.9100016 L10.035426,22.3000016 L10.035426,17.6000016 L9.10542597,17.6000016 C4.69490109,17.6692868 0.884170665,14.5317855 0.105425969,10.1900016 C-0.291996098,7.64047279 0.44566047,5.04466888 2.1244341,3.08513814 C3.80320774,1.1256074 6.25510832,-0.0015654732 8.83542597,1.63188664e-06 L18.235426,1.63188664e-06 C20.8107932,0.00964492742 23.2536044,1.14316749 24.9237791,3.10355665 C26.5939538,5.06394581 27.3250225,7.65580593 26.925426,10.2000016 Z" id="Shape"></path>
                    <g id="Group" opacity="0.7" transform="translate(17.000000, 12.000000)">
                        <path d="M1.11,7.78 C1.78291176,10.5270836 4.28286669,12.431216 7.11,12.35 L7.11,12.35 C8.47878683,12.349295 9.79176906,12.8924739 10.76,13.86 L12.39,15.49 L12.39,12.36 L12.95,12.36 C15.9640195,12.4183859 18.553402,10.2313206 19,7.25 C19.2244055,5.56463252 18.7120872,3.86426076 17.5939621,2.58339481 C16.475837,1.30252887 14.8602334,0.565264141 13.16,0.56 L6.86,0.56 C5.06463627,0.563943763 3.3684086,1.38378764 2.24993758,2.78819821 C1.13146656,4.19260878 0.712037603,6.02929374 1.11,7.78 L1.11,7.78 Z" id="Shape"></path>
                    </g>
                </g>
            </g>
        </g>
    </g>
</svg>